<!DOCTYPE svg PUBLIC "-//W3C//DTD SVG 1.1//EN" "http://www.w3.org/Graphics/SVG/1.1/DTD/svg11.dtd">
<!-- Uploaded to: SVG Repo, www.svgrepo.com, Transformed by: SVG Repo Mixer Tools -->
<svg version="1.1" id="Icons" xmlns="http://www.w3.org/2000/svg" xmlns:xlink="http://www.w3.org/1999/xlink" viewBox="-3.2 -3.2 38.40 38.40" xml:space="preserve" width="64px" height="64px" fill="#ffffff" stroke="#ffffff" transform="rotate(0)matrix(1, 0, 0, 1, 0, 0)">
<g id="SVGRepo_bgCarrier" stroke-width="0"/>
<g id="SVGRepo_tracerCarrier" stroke-linecap="round" stroke-linejoin="round" stroke="#CCCCCC" stroke-width="0.256"/>
<g id="SVGRepo_iconCarrier"> <style type="text/css"> .st0{fill:none;stroke:#ffffff;stroke-width:2;stroke-linecap:round;stroke-linejoin:round;stroke-miterlimit:10;} </style> <path class="st0" d="M16,8L3,21h20v0c0-5-2.4-9.7-6.5-12.6L16,8z"/> <path class="st0" d="M29,21L29,21c0-6.6-3.2-12.7-8.5-16.5L19.9,4h0C17.7,4,16,5.7,16,7.9V8"/> <circle class="st0" cx="17" cy="16" r="2"/> <line class="st0" x1="11" y1="17" x2="11" y2="18"/> <path class="st0" d="M26.5,18c-1.9-0.3-3.5,1.1-3.5,3H3v3h7.5c1.4,0,2.5,1.1,2.5,2.5v0c0,0.8,0.7,1.5,1.5,1.5h0 c0.8,0,1.5-0.7,1.5-1.5v0c0-1.4,1.1-2.5,2.5-2.5H26c1.8,0,3.3-1.6,3-3.5C28.7,19.2,27.8,18.3,26.5,18z"/> </g>
</svg>